<?xml version="1.0" ?><!DOCTYPE svg  PUBLIC '-//W3C//DTD SVG 1.1//EN'  'http://www.w3.org/Graphics/SVG/1.1/DTD/svg11.dtd'><svg enable-background="new 0 0 500 500" height="500px" id="Layer_1" version="1.1" viewBox="0 0 500 500" width="500px" xml:space="preserve" xmlns="http://www.w3.org/2000/svg" xmlns:xlink="http://www.w3.org/1999/xlink"><path clip-rule="evenodd" d="M164.188,31.949c-20.079,0-36.343,16.264-36.343,36.34v381.589  c0,9.991,8.181,18.172,18.172,18.172c4.994,0,9.537-1.994,12.812-5.27l47.06-46.795c7.09-7.166,18.623-7.166,25.713,0l46.969,46.795  c3.275,3.275,7.818,5.27,12.813,5.27c9.991,0,18.172-8.181,18.172-18.172V95.548c0-10.542,8.182-18.173,18.172-18.173h22.711  c12.537,0,22.717-10.177,22.717-22.713c0-12.536-10.18-22.713-22.717-22.713H164.188z" fill="#010101" fill-rule="evenodd"/></svg>